<?xml version="1.0" encoding="UTF-8" standalone="no"?>
<svg
   viewBox="0 0 2666.6667 2666.6667"
   height="2666.6667"
   width="2666.6667"
   xml:space="preserve"
   id="svg2"
   version="1.1"
   xmlns="http://www.w3.org/2000/svg"
   xmlns:svg="http://www.w3.org/2000/svg"
   xmlns:rdf="http://www.w3.org/1999/02/22-rdf-syntax-ns#"
   xmlns:cc="http://creativecommons.org/ns#"
   xmlns:dc="http://purl.org/dc/elements/1.1/"><metadata
     id="metadata8"><rdf:RDF><cc:Work
         rdf:about=""><dc:format>image/svg+xml</dc:format><dc:type
           rdf:resource="http://purl.org/dc/dcmitype/StillImage" /></cc:Work></rdf:RDF></metadata><defs
     id="defs6"><rect
       x="826.20724"
       y="1674.6244"
       width="1003.8862"
       height="111.04936"
       id="rect2093" /><rect
       x="839.53316"
       y="1647.9725"
       width="1030.5381"
       height="137.70121"
       id="rect564" /></defs><g
     transform="matrix(0.13333333,0,0,-0.13333333,0,2666.6667)"
     id="g12"><path
       id="path14"
       style="fill:#f9a72b;fill-opacity:1;fill-rule:nonzero;stroke:none"
       d="m 15447,12082 c -8.2,-164.4 -33.8,-325.5 -73.9,-481.1 -40.1,-155.6 -93.8,-306.1 -161.2,-449.4 -67.1,-143.2 -146.3,-279.9 -237.6,-407.7 -91.6,-127.6 -194.7,-246.6 -308.3,-354.6 l -43.2,-39.9 -21.7,-19.8 c -7.6,-6.7 -16.1,-13.7 -24.1,-20.5 l -49.1,-40.9 -24.4,-19.9 -19.5,-14.6 -39.1,-29.2 -27.9,-20.7 -23.3,-16.1 c -31.2,-21.3 -62,-43.1 -94,-62.7 -126.6,-80.8 -258.8,-149.2 -392.7,-207.1 -134,-58.1 -270.6,-104 -406.9,-140.6 -136.4,-36.7 -272.9,-62.8 -408,-80.6 -135,-18 -268.7,-27.2 -400.1,-29.2 -131.3,-2.2 -260.4,2.6 -386.6,13.7 -126.2,10.9 -249.5,27.4 -369.5,49.8 -120,22 -236.9,48.6 -350.1,79.8 -56.8,15.3 -112.1,32.2 -167.6,49.3 -28.1,9.3 -56.2,18.5 -84.1,27.7 -25.4,9.1 -50.6,18.2 -75.8,27.2 l -18.6,6.8 c -7.3,2.3 -4.9,1.7 -7.7,2.7 l -4.9,2 -9.7,3.8 c -12.9,5.1 -25.9,10.1 -38.7,15.2 -25.7,10.1 -51.3,20.2 -76.8,30.2 -51.2,19.2 -100.1,42.1 -149,63.5 -195,86.6 -375.6,179.6 -540.7,276.8 -102.2,59.4 -199.2,119.1 -291.1,178.8 l 246,282.4 c 33.2,-14.4 67,-28 100.9,-42.6 20.2,-8.6 40.7,-17.2 61.2,-25.9 20.6,-8.6 41.6,-16.4 62.6,-24.7 167.3,-67.6 345.3,-129.5 531.7,-184.9 46.7,-13.5 93.6,-28.3 141.6,-39.8 23.8,-6.2 47.8,-12.4 72,-18.6 12,-3.1 24.1,-6.2 36.2,-9.4 l 9,-2.3 4.6,-1.2 c 0.2,0 5.8,-1.6 1.7,-0.3 l 19.4,-4.4 c 25.6,-5.8 51.4,-11.7 77.3,-17.6 23.7,-4.7 47.5,-9.5 71.4,-14.3 49.1,-9.2 99.4,-18.5 149.9,-26.1 202.2,-31.1 412.4,-48.9 626.1,-46.6 106.8,1.3 214.4,6.9 322,18 107.5,11.4 215,28.1 321.5,50.6 106.4,22.8 211.6,51.9 314.6,87.1 103,35.3 203.2,78 300.2,126.7 96.9,48.9 189.6,105.5 277.8,168.3 22.4,15.2 43.5,32.2 65.1,48.6 l 16.2,12.2 c -2,-1.5 10.2,7.8 -3.5,-2.6 l 4.7,3.9 9.3,7.8 37.5,31.1 18.8,15.6 12.6,12.1 24.7,23.4 c 4.2,3.9 8.2,7.4 12.6,11.7 l 13.7,14.2 27.6,28 c 145.9,151.3 266.7,335.8 352.5,536.1 42.5,100.3 77.3,204 101.6,309.6 24.3,105.5 38.7,212.4 42.8,318.1 1.5,26.4 0.3,52.6 0.8,78.9 -0.7,26.2 -2.4,52.1 -3.4,78.2 -3,25.6 -4.6,51.5 -8.1,76.9 l -5.6,38 c -1.7,12.7 -3.5,25.3 -6.4,37.6 -18.7,99.8 -49,195.1 -90.4,283.6 l -7.5,16.8 -8.6,16.1 -16.8,32.4 c -5.1,11 -12.1,21 -18.2,31.5 l -18.7,31.2 c -6.3,10.3 -13.8,19.9 -20.5,30 l -10.3,15 -5.1,7.5 -2.6,3.7 c -4.3,5.9 3.3,-3.9 0.9,-0.9 l -15.4,20.2 -7.7,10.1 -3.9,5.1 -2.5,3.1 -9.7,11.7 c -3.1,4 -6.1,7.8 -10.5,12.8 -64.4,75.6 -138.1,144.5 -219,202.7 -40.5,29.1 -82.8,55.5 -126.3,78.9 l -16.4,8.7 -4,2.2 c 2,-0.9 -5.6,2.8 -2.5,1.4 l -3.9,1.8 -45.5,22 -11.4,5.5 c -3.7,1.8 -5.1,2.1 -7.8,3.2 l -14,5.8 -14,6 c -4.9,2.1 -8.7,4.1 -15.1,6.3 -92.7,35.5 -190.1,61.5 -291.9,75 -101.5,13.9 -206.7,17.7 -313.2,9.7 -106.6,-6.8 -214.5,-23.4 -321.3,-49.7 -214.1,-50.7 -423.5,-136.9 -618.2,-244 -96.9,-54.4 -190.5,-114 -279.2,-178.3 l -16.6,-12 c -2.6,-1.9 7.9,6.8 1.2,1.4 l -4.6,-3.6 -9.2,-7.2 -36.8,-28.8 c -24.4,-19.1 -48.8,-38.2 -73,-57.2 -20.7,-17.2 -41.3,-34.4 -61.8,-51.5 -20.7,-17.5 -41.1,-33.2 -62.3,-53 -41.9,-38.2 -84.8,-74.3 -125.1,-114.3 -20.6,-19.5 -41,-38.9 -61.4,-58.3 -20.5,-19.4 -40.1,-40 -60.1,-59.8 -19.9,-20.1 -39.7,-40.1 -59.5,-60 -19.5,-20.6 -38.9,-41.1 -58.2,-61.6 -38.8,-40.4 -76.8,-82.4 -114.6,-123.8 -301.1,-333.4 -1247.7,-1453.2 -1554.47,-1718 -33.5,-28.9 -67.5,-56.2 -100.47,-83.7 -266.94,-216 -523.3,-375.5 -747.51,-476.3 -56.44,-24.6 -108.36,-49.7 -160.1,-67.7 -51.33,-18.6 -98.25,-37.8 -144.22,-50.2 -22.63,-6.8 -44.43,-13.4 -65.37,-19.6 -10.42,-3.2 -20.63,-6.2 -30.62,-9.2 -4.99,-1.5 -9.92,-3 -14.81,-4.4 -5,-1.2 -9.94,-2.3 -14.83,-3.4 -38.94,-8.6 -74.31,-16.5 -105.99,-23.6 -15.84,-3.2 -30.41,-7.2 -44.58,-9.2 -14.13,-2.1 -27.31,-4 -39.52,-5.8 -24.3,-3.5 -44.76,-6.5 -61.23,-8.8 -32.78,-4.5 -49.71,-6.9 -49.71,-6.9 0,0 15.79,6.7 46.37,19.7 15.21,6.3 34.1,14.2 56.55,23.6 11.16,4.7 23.22,9.7 36.14,15.1 12.96,5.1 26.19,12.5 40.53,19.2 115.14,52.8 277.86,142.2 465.09,278.5 187.53,136.1 394.78,326.1 606.73,566.2 55.94,63.7 112.12,131.3 168.55,202.1 l 151.72,197.5 c 26.44,36.1 53.94,72.5 79.82,109.7 13.22,18.7 26.51,37.4 39.88,56.3 13.35,18.8 26.75,37.6 40.63,58.2 13.78,20.2 27.63,40.4 41.56,60.8 7,10.2 14.01,20.4 21.05,30.6 l 10.58,15.3 c 1.19,1.7 -0.78,-0.6 1.26,2.2 l 2.54,3.8 5.09,7.7 c 27.17,40.8 54.64,82.1 82.34,123.8 110.8,170 226.2,347.2 345.7,530.5 121.5,185 251,377.2 395.9,571.6 36.5,48.5 72.5,97.8 111.6,146.1 19.3,24.3 38.6,48.7 57.9,73.1 20.1,24.2 40.3,48.5 60.5,72.8 20.4,24.2 40.2,48.9 61.4,72.9 21.3,24.1 42.7,48.2 64.1,72.3 42.2,48.7 88.8,95.3 133.9,143.2 21.8,23.7 48,48.2 72.6,72.4 25,24.2 50.1,48.5 75.3,72.9 23,20.8 46.2,41.6 69.4,62.5 l 34.7,31.3 8.7,7.8 4.3,3.9 c -3.6,-2.9 9.8,8.3 10.4,8.8 l 20.2,16.8 c 107.5,90.4 221.6,175.1 342.4,252.2 241.6,154 508.7,281.7 800.8,366.5 291.2,84.5 610,125.9 938.3,91.2 20.5,-1.7 41,-4.4 61.5,-7.4 l 61.5,-8.9 61.4,-11.6 30.7,-5.9 30.6,-7.1 61.2,-14.7 c 20.3,-5.5 40.5,-11.5 60.8,-17.3 40.6,-11.1 80.4,-25.9 120.6,-39.4 9.6,-3.2 21.2,-8 31.9,-12.2 l 32.7,-13.1 32.6,-13.3 15.6,-6.5 11.4,-5.2 46.1,-20.9 11.5,-5.3 c 20.6,-9.8 9.8,-4.8 16.2,-7.9 l 7.2,-3.6 28.5,-14.6 c 75.8,-39.5 149,-83.6 218.9,-132.4 140,-97.6 268.2,-212.5 379.5,-343.3 6.8,-7.6 14.5,-17 22.1,-26.3 l 22.4,-27.6 32.6,-42 c 0.3,-0.4 10.2,-13.8 8.3,-11.3 l 4.7,-6.7 9.4,-13.3 18.8,-26.8 c 12.3,-18 25.2,-35.6 36.9,-54 l 34.1,-55.7 c 11.2,-18.7 23,-37.1 32.8,-56.5 l 30.6,-57.7 15,-28.9 13.5,-29.7 c 73,-157.6 124,-323.4 154.3,-490.1 30.8,-166.9 39.2,-334.8 30.9,-499" /><path
       id="path16"
       style="fill:#36ab9c;fill-opacity:1;fill-rule:nonzero;stroke:none"
       d="m 4553.04,11864.9 c 8.13,164.5 33.79,325.6 73.9,481.2 40.09,155.6 93.8,306.1 161.13,449.3 67.17,143.2 146.32,280 237.65,407.7 91.62,127.6 194.63,246.6 308.23,354.7 l 43.24,39.8 21.68,19.8 c 7.59,6.7 16.14,13.7 24.18,20.5 l 49.08,40.9 24.34,19.9 19.56,14.6 39.05,29.2 27.91,20.8 23.34,16 c 31.2,21.3 61.93,43.1 93.99,62.7 126.59,80.8 258.74,149.2 392.7,207.2 133.97,58 270.55,104 406.89,140.5 136.35,36.7 272.89,62.8 407.95,80.6 135.05,18 268.74,27.3 400.1,29.2 131.37,2.2 260.43,-2.6 386.61,-13.7 126.2,-10.9 249.57,-27.4 369.56,-49.7 120.01,-22.1 236.87,-48.6 350.11,-79.8 56.8,-15.4 112.1,-32.2 167.54,-49.4 28.16,-9.3 56.21,-18.5 84.11,-27.7 25.37,-9.1 50.63,-18.2 75.77,-27.2 l 18.67,-6.8 c 7.3,-2.3 4.82,-1.7 7.71,-2.7 l 4.86,-1.9 9.71,-3.9 c 12.94,-5 25.85,-10.1 38.72,-15.2 25.71,-10.1 51.29,-20.2 76.74,-30.2 51.24,-19.2 100.14,-42.1 149.04,-63.4 194.94,-86.7 375.59,-179.7 540.73,-276.8 102.13,-59.4 199.17,-119.1 291.06,-178.9 l -246.05,-282.4 c -33.16,14.4 -66.94,28 -100.8,42.6 -20.29,8.6 -40.71,17.2 -61.27,25.9 -20.6,8.6 -41.61,16.4 -62.57,24.7 -167.31,67.6 -345.28,129.6 -531.72,185 -46.73,13.4 -93.55,28.2 -141.55,39.8 -23.89,6.1 -47.89,12.3 -72.01,18.5 -12.04,3.1 -24.11,6.3 -36.21,9.4 l -9.07,2.3 -4.53,1.2 c -0.26,0 -5.85,1.7 -1.72,0.3 l -19.36,4.4 c -25.67,5.9 -51.46,11.7 -77.37,17.6 -23.67,4.7 -47.45,9.5 -71.34,14.3 -49.1,9.2 -99.4,18.6 -149.91,26.1 -202.21,31.2 -412.45,48.9 -626.14,46.7 -106.81,-1.3 -214.4,-7 -321.97,-18.1 -107.55,-11.4 -215.04,-28.1 -321.49,-50.6 -106.4,-22.8 -211.61,-51.8 -314.6,-87 -102.97,-35.4 -203.26,-78.1 -300.19,-126.8 -96.91,-48.9 -189.61,-105.5 -277.78,-168.3 -22.5,-15.1 -43.54,-32.2 -65.15,-48.5 l -16.16,-12.3 c 2.01,1.5 -10.21,-7.8 3.48,2.6 l -4.68,-3.9 -9.37,-7.8 -37.52,-31.1 -18.78,-15.6 -12.58,-12.1 -24.68,-23.3 c -4.19,-4 -8.19,-7.5 -12.59,-11.8 l -13.71,-14.1 -27.61,-28 c -145.88,-151.3 -266.68,-335.9 -352.46,-536.2 -42.52,-100.2 -77.39,-204 -101.67,-309.5 -24.24,-105.6 -38.71,-212.5 -42.79,-318.1 -1.48,-26.5 -0.25,-52.7 -0.82,-79 0.69,-26.2 2.42,-52.1 3.43,-78.2 3,-25.6 4.65,-51.5 8.11,-76.9 l 5.64,-37.9 c 1.65,-12.8 3.47,-25.4 6.35,-37.7 18.75,-99.8 49.01,-195.1 90.45,-283.6 l 7.45,-16.7 8.57,-16.2 16.83,-32.3 c 5.13,-11.1 12.1,-21.1 18.24,-31.5 l 18.66,-31.3 c 6.33,-10.3 13.8,-19.9 20.54,-29.9 l 10.29,-15 5.11,-7.5 2.55,-3.8 c 4.37,-5.9 -3.24,3.9 -0.92,0.9 l 15.43,-20.2 7.71,-10.1 3.86,-5.1 2.58,-3.1 9.64,-11.7 c 3.16,-3.9 6.1,-7.7 10.54,-12.7 64.4,-75.7 138.06,-144.5 219.02,-202.7 40.41,-29.2 82.72,-55.5 126.23,-79 l 16.38,-8.7 4.09,-2.2 c -2.02,1 5.58,-2.8 2.49,-1.3 l 3.88,-1.9 45.5,-22 11.38,-5.5 c 3.73,-1.8 5.1,-2.1 7.76,-3.2 l 14.09,-5.8 14.01,-6 c 4.88,-2 8.63,-4.1 15.04,-6.2 92.75,-35.6 190.11,-61.6 291.87,-75 101.56,-14 206.7,-17.7 313.28,-9.8 106.57,6.8 214.43,23.4 321.23,49.7 214.12,50.8 423.49,136.9 618.18,244 96.99,54.4 190.53,114 279.21,178.3 l 16.69,12 c 2.58,1.9 -7.96,-6.7 -1.3,-1.3 l 4.62,3.6 9.21,7.2 36.82,28.7 c 24.41,19.1 48.76,38.2 73.05,57.2 20.64,17.2 41.23,34.4 61.77,51.6 20.69,17.4 41.04,33.1 62.3,52.9 41.88,38.2 84.78,74.4 125.12,114.3 20.52,19.5 40.98,38.9 61.38,58.3 20.44,19.4 40.06,40 60.08,59.9 19.9,20 39.74,40 59.53,60 19.44,20.5 38.82,41 58.14,61.5 38.88,40.5 76.81,82.4 114.6,123.8 301.13,333.4 1247.69,1453.2 1554.53,1718 33.5,28.9 67.5,56.2 100.4,83.7 267,216 523.3,375.6 747.5,476.3 56.5,24.6 108.4,49.7 160.2,67.7 51.3,18.6 98.2,37.8 144.2,50.3 22.6,6.8 44.4,13.3 65.3,19.6 10.5,3.1 20.7,6.1 30.7,9.1 5,1.5 9.9,3 14.8,4.5 5,1.1 9.9,2.2 14.8,3.3 38.9,8.7 74.3,16.5 106,23.6 15.8,3.2 30.4,7.3 44.6,9.3 14.1,2 27.3,4 39.5,5.7 24.3,3.5 44.7,6.5 61.2,8.8 32.8,4.5 49.7,6.9 49.7,6.9 0,0 -15.8,-6.7 -46.3,-19.6 -15.2,-6.4 -34.1,-14.3 -56.6,-23.7 -11.2,-4.7 -23.2,-9.7 -36.1,-15.1 -13,-5.1 -26.2,-12.5 -40.6,-19.2 -115.1,-52.8 -277.8,-142.2 -465,-278.5 -187.6,-136.1 -394.8,-326.1 -606.8,-566.2 -55.9,-63.7 -112.1,-131.3 -168.5,-202.1 l -151.7,-197.4 c -26.5,-36.2 -54,-72.6 -79.9,-109.8 -13.2,-18.6 -26.5,-37.4 -39.9,-56.3 -13.3,-18.8 -26.7,-37.6 -40.6,-58.2 -13.8,-20.1 -27.6,-40.4 -41.5,-60.8 -7,-10.2 -14.1,-20.4 -21.1,-30.6 l -10.6,-15.3 c -1.2,-1.7 0.8,0.6 -1.2,-2.2 l -2.6,-3.8 -5.1,-7.6 c -27.1,-40.9 -54.58,-82.1 -82.33,-123.8 -110.79,-170.1 -226.19,-347.2 -345.63,-530.6 -121.57,-184.9 -251.02,-377.2 -395.92,-571.6 -36.51,-48.5 -72.52,-97.7 -111.62,-146 -19.25,-24.4 -38.57,-48.7 -57.94,-73.2 -20.08,-24.2 -40.22,-48.4 -60.42,-72.8 -20.44,-24.2 -40.24,-48.9 -61.46,-72.9 -21.3,-24 -42.66,-48.1 -64.08,-72.3 -42.22,-48.7 -88.76,-95.3 -133.89,-143.2 -21.85,-23.7 -47.99,-48.2 -72.62,-72.4 -25.02,-24.2 -50.12,-48.5 -75.27,-72.9 -23.07,-20.8 -46.19,-41.6 -69.37,-62.5 l -34.73,-31.3 -8.69,-7.8 -4.35,-3.9 c 3.66,2.9 -9.81,-8.3 -10.34,-8.7 l -20.2,-16.9 c -107.55,-90.4 -221.6,-175 -342.4,-252.2 -241.67,-153.9 -508.78,-281.7 -800.84,-366.5 -291.2,-84.5 -610.05,-125.9 -938.31,-91.2 -20.45,1.7 -40.94,4.5 -61.44,7.4 l -61.5,8.9 -61.43,11.6 -30.71,5.9 -30.6,7.2 -61.19,14.7 c -20.31,5.4 -40.53,11.4 -60.79,17.3 -40.68,11 -80.47,25.8 -120.6,39.4 -9.59,3.1 -21.18,7.9 -31.93,12.1 l -32.7,13.1 -32.64,13.3 -15.51,6.5 -11.5,5.3 -46.01,20.8 -11.51,5.3 c -20.64,9.9 -9.82,4.8 -16.28,7.9 l -7.14,3.7 -28.52,14.5 c -75.74,39.5 -148.95,83.6 -218.93,132.5 -139.97,97.5 -268.12,212.4 -379.49,343.2 -6.8,7.7 -14.49,17.1 -22.02,26.3 l -22.48,27.7 -32.58,42 c -0.33,0.3 -10.21,13.7 -8.3,11.2 l -4.72,6.7 -9.41,13.4 -18.77,26.7 c -12.31,18 -25.23,35.6 -36.86,54 l -34.13,55.8 c -11.17,18.7 -23.03,37 -32.85,56.4 l -30.51,57.7 -15.05,29 -13.45,29.6 c -73.01,157.6 -124.03,323.4 -154.34,490.1 -30.75,166.9 -39.24,334.8 -30.86,499" /><path
       id="path18"
       style="fill:#2e3192;fill-opacity:1;fill-rule:nonzero;stroke:none"
       d="m 5263.6525,7247.2026 c 0.5058,-9.9692 0.8753,-19.9459 1.0547,-29.9268 0.048,-3.0405 0.068,-6.0847 0.1025,-9.126 3.9756,-10.3399 7.6345,-20.965 10.752,-32.08 2.1784,-7.6839 3.8612,-15.4678 5.3466,-23.2911 3.9573,14.0049 8.408,27.6689 13.5791,40.8252 5.9307,15.2679 13.1168,29.3189 20.3614,43.3155 -3.162,0.4951 -6.3328,0.9487 -9.4776,1.582 -13.8833,3.0114 -27.801,5.856 -41.7187,8.7012 z m 536.6455,-101.6602 c 0.2983,-0.7827 0.4093,-1.0346 0.7178,-1.8457 h 11.2207 c -3.9845,0.5849 -7.9558,1.2482 -11.9385,1.8457 z m 11.748,-304.1455 c -2.7325,-14.7894 -6.0104,-28.5983 -9.6533,-41.748 4.5033,-4.8934 8.7119,-9.9796 12.6416,-15.2491 4.2925,17.0811 7.9747,34.9877 10.3418,54.6973 z" /><path
       id="path40"
       style="fill:#2e3192;fill-opacity:1;fill-rule:nonzero;stroke:none"
       d="m 13521.1,6430.6 c -52.6,1.2 -111,2.4 -174.4,3.8 -63.5,0.9 -132.2,2 -205.5,3.1 -146.7,2.1 -312.3,5.4 -492.8,7.2 -90.3,0.9 -184.4,1.9 -281.7,3 -97.3,0.7 -198,1.4 -301.4,2.2 -103.5,0.9 -209.7,1.3 -318.4,1.5 -108.6,0.2 -219.6,0.5 -332.4,0.8 -225.7,-1 -459,-2 -696,-3.1 -237,-1.5 -477.7,-3 -718.5,-4.4 -481.52,-2.4 -963.04,-4.7 -1414.47,-6.9 -451.42,-2.7 -872.75,-5.1 -1233.89,-7.2 -722.28,-4.7 -1203.8,-7.8 -1203.8,-7.8 v -6.3 c 0,0 481.52,-3.1 1203.8,-7.8 361.14,-2.1 782.47,-4.6 1233.89,-7.2 451.43,-2.2 932.95,-4.5 1414.47,-6.9 240.8,-1.5 481.5,-2.9 718.5,-4.4 237,-1.1 470.3,-2.1 696,-3.1 112.8,0.3 223.8,0.5 332.4,0.8 108.7,0.2 214.9,0.5 318.4,1.5 103.4,0.8 204.1,1.5 301.4,2.2 97.3,1.1 191.4,2.1 281.7,3 180.5,1.8 346.1,5.1 492.8,7.1 73.3,1.2 142,2.2 205.5,3.2 63.4,1.4 121.8,2.6 174.4,3.7 105.4,2.4 188.1,4.3 244.5,5.6 56.5,1.5 86.6,2.3 86.6,2.3 v 6.3 c 0,0 -30.1,0.8 -86.6,2.3 -56.4,1.3 -139.1,3.2 -244.5,5.5" /><path
       id="path42"
       style="fill:#2e3192;fill-opacity:1;fill-rule:nonzero;stroke:none"
       d="m 7465.75,5917.2 c -8.38,9.2 -18.17,17.3 -29.63,23.8 -11.38,6.6 -24.12,12.4 -37.99,17.4 -13.84,5 -28.58,9.4 -44.41,13.3 -15.81,3.7 -31.92,7.6 -48.59,11.5 -19.03,4.5 -35.04,8.9 -47.99,13.3 -12.98,4.6 -23.42,9.5 -31.27,14.8 -7.94,5.1 -13.7,10.7 -17.18,17 -3.6,6.2 -5.37,13 -5.37,20.4 0,9 2.29,17.6 6.9,25.3 4.53,7.9 11.05,14.7 19.55,20.3 8.55,5.6 18.85,10 31.03,13.2 12.11,3.2 25.85,4.8 41.11,4.8 64.13,0 98.95,-25.3 104.42,-76 h 74.56 c -0.87,22.3 -5.76,42.2 -14.41,59.7 -8.77,17.4 -20.96,32.1 -36.44,44.2 -15.65,12 -34.3,21.2 -56.11,27.3 -21.75,6.4 -46.03,9.4 -72.93,9.4 -25.78,0 -49.31,-3 -70.45,-9.4 -21.02,-6.3 -39.07,-15.3 -54.21,-26.7 -15.13,-11.2 -26.79,-25.1 -35.07,-41.1 -8.32,-16.2 -12.39,-33.8 -12.39,-53.1 0,-17.7 2.79,-33.3 8.58,-46.8 5.87,-13.6 14.61,-25.5 26.44,-36 11.78,-10.4 26.68,-19.4 44.6,-27 17.91,-7.3 39,-13.8 63.32,-19.2 25.88,-5.8 48.04,-10.9 66.17,-15.9 18.36,-4.9 33.26,-10.1 45,-16 11.62,-5.9 20.28,-12.7 25.74,-20.6 5.43,-7.9 8.12,-17.9 8.12,-29.7 0,-10.5 -2.62,-20.2 -7.86,-29 -5.18,-8.8 -12.47,-16.3 -21.95,-22.5 -9.41,-6.3 -20.72,-11.1 -33.88,-14.5 -13.15,-3.2 -27.54,-5.2 -43.23,-5.2 -16.58,0 -32.01,2.1 -46.46,6.2 -14.39,4.2 -27.13,10.1 -38.11,17.9 -11.07,7.9 -19.94,17.7 -26.95,29.3 -6.81,11.7 -11.09,25.2 -12.39,40.7 h -73.14 c 0.86,-24.7 5.76,-46.9 14.8,-66.3 8.91,-19.6 21.73,-36.1 38.4,-49.8 16.81,-13.6 37.12,-24.1 61.31,-31.5 24.12,-7.1 52.14,-10.7 83.96,-10.7 26.38,0 50.54,3.3 72.65,10 22.07,6.7 41.21,16.1 57.25,28.4 16.01,12.2 28.43,27 37.36,44.4 9.03,17.1 13.33,36.4 13.33,57.4 0,17 -2.13,31.5 -6.8,44.2 -4.66,12.6 -11.09,23.5 -19.39,32.8" /><path
       id="path44"
       style="fill:#2e3192;fill-opacity:1;fill-rule:nonzero;stroke:none"
       d="m 8254.25,6169.4 h -76.99 v -461.6 h 293.86 v 67 h -216.87 v 394.6" /><path
       id="path46"
       style="fill:#2e3192;fill-opacity:1;fill-rule:nonzero;stroke:none"
       d="m 9509.39,5867.2 c -6.89,-21.4 -16.43,-39.7 -28.8,-55 -12.56,-15.1 -27.7,-26.7 -45.2,-34.9 -17.52,-8.2 -37.28,-12.2 -58.81,-12.2 -21.04,0 -40.41,4 -57.87,12.2 -17.38,8.2 -32.44,19.8 -44.93,34.9 -12.38,15.3 -22.13,33.6 -29.17,55 -6.9,21.3 -10.23,45.2 -10.23,71.4 0,26.1 3.33,49.9 10.23,71.2 6.7,21.2 16.4,39.7 29.04,54.9 12.62,15.1 27.8,26.9 45.59,35.2 17.59,8.3 37.17,12.4 58.71,12.4 21.63,0 41.08,-4.2 58.75,-12.6 17.29,-8.4 32.19,-20.3 44.4,-35.6 12.29,-15.3 21.81,-33.5 28.53,-54.7 6.67,-21.2 10.07,-44.9 10.07,-70.8 0,-26.2 -3.4,-50.1 -10.31,-71.4 z m 27.51,244.2 c -19.52,20.9 -42.74,36.9 -69.8,48.3 -27.25,11.5 -57.13,17.2 -89.78,17.2 -32.67,0 -62.46,-5.7 -89.51,-17.2 -27.02,-11.4 -50.28,-27.4 -69.8,-48.3 -19.61,-20.7 -34.75,-45.7 -45.54,-75.1 -10.76,-29.5 -16.02,-62 -16.02,-97.7 0,-35.7 5.17,-68.5 15.72,-97.8 10.58,-29.4 25.45,-54.5 44.77,-75.4 19.31,-21 42.53,-37 69.67,-48.4 27.01,-11.3 57.41,-17 90.71,-17 33.35,0 63.73,5.7 90.99,17.2 27.03,11.4 50.39,27.6 69.79,48.7 19.21,20.9 34.18,46.1 44.48,75.3 10.46,29.4 15.69,61.8 15.69,97.4 0,35.7 -5.47,68.2 -16.18,97.7 -10.84,29.4 -25.86,54.4 -45.19,75.1" /><path
       id="path48"
       style="fill:#2e3192;fill-opacity:1;fill-rule:nonzero;stroke:none"
       d="m 10527,5884.2 h 112.4 v -63.4 c -14.4,-19 -32.6,-33 -54.6,-42.2 -22,-9 -47.9,-13.5 -77.6,-13.5 -21.7,0 -41.7,3.7 -59.5,11.4 -18.1,7.8 -33.3,19.1 -46,33.9 -12.8,14.6 -22.7,32.8 -29.6,54.4 -7.1,21.6 -10.6,46.2 -10.6,73.8 0,27.5 3.5,51.9 10.3,73.7 7,21.5 16.7,39.5 29.4,54.3 12.6,14.9 27.6,26.1 45.3,33.9 17.5,7.8 37.1,11.8 58.7,11.8 36.1,0 64.7,-7.6 86,-23 21.2,-15.3 33.7,-36.7 37.5,-64 h 77.3 c -2.4,24.2 -8.9,45.8 -19.2,64.4 -10.2,19 -24.2,34.9 -41.6,47.8 -17.2,12.9 -37.9,22.8 -61.6,29.5 -23.7,6.7 -50,9.9 -79.2,9.9 -33.7,0 -64.1,-5.7 -91.6,-17.2 -27.2,-11.4 -50.3,-27.4 -69.5,-48.3 -19.2,-20.7 -34,-45.7 -44.3,-75.1 -10.3,-29.5 -15.6,-62 -15.6,-97.7 0,-36.5 5.3,-69.4 15.6,-99 10.3,-29.6 25.1,-54.6 44.1,-75.4 19,-20.6 42.1,-36.4 68.9,-47.5 26.9,-11.1 57.1,-16.7 90.3,-16.7 32.8,0 61.3,4.4 85.6,13.1 24.3,8.7 44.5,21.7 60.9,38.7 l 13.9,-44 h 51.1 v 238.3 H 10527 v -61.9" /><path
       id="path50"
       style="fill:#2e3192;fill-opacity:1;fill-rule:nonzero;stroke:none"
       d="m 11542.8,5896.8 65.3,191 h 6.5 l 69.2,-191 z m 26.5,272.6 -170.2,-461.6 h 78 l 44.6,127.6 h 182.1 l 47.4,-127.6 h 80.4 l -177.9,461.6 h -84.4" /><path
       id="path52"
       style="fill:#2e3192;fill-opacity:1;fill-rule:nonzero;stroke:none"
       d="m 12815.3,6024.4 c 0,-33.9 0.2,-67.2 0.4,-100.4 0.2,-33.2 0.3,-66.6 0.3,-100.4 l -221,345.8 h -78.2 v -461.6 h 72.5 v 145 c 0,33.9 -0.2,67.5 -0.4,100.9 -0.2,33.4 -0.6,66.9 -1,100.7 l 222,-346.6 h 77.2 v 461.6 h -71.8 v -145" /></g><text
     xml:space="preserve"
     id="text562"
     style="fill:#77767b;-inkscape-font-specification:'Bodoni 72 Oldstyle';font-family:'Bodoni 72 Oldstyle';font-size:53.33333333px;stroke:#f6f5f5;stroke-width:10.80566929;fill-opacity:0.02981651;opacity:0.49358974;font-weight:normal;font-style:normal;font-stretch:normal;font-variant:normal;white-space:pre;shape-inside:url(#rect564)" /><text
     xml:space="preserve"
     id="text2091"
     style="font-style:normal;font-variant:normal;font-weight:normal;font-stretch:normal;font-size:85.3333px;font-family:'Bodoni 72 Oldstyle';-inkscape-font-specification:'Bodoni 72 Oldstyle';white-space:pre;shape-inside:url(#rect2093);opacity:0.49359;fill:#5e5c64;fill-opacity:0.0298165;stroke:#f6f5f5;stroke-width:10.8057" /></svg>
